# xmcd CD database file
#
# Track frame offsets:
#	150
#	19140
#	38992
#	53132
#	70082
#	88937
#	107365
#	130927
#	149095
#	171240
#	192757
#
# Disc length: 2778 seconds
#
# Revision: 0
# Processed by: cddbd v1.5PL3 Copyright (c) Steve Scherf et al.
# Submitted via: CDex 1.51
#
DISCID=9b0ad80b
DTITLE=Marc Ferrari and FRIENDS - Guest List
DYEAR=1995
DGENRE=Hard Rock
TTITLE0=Cardshark
TTITLE1=Long Gone
TTITLE2=Cold Hands Warm Heart
TTITLE3=The Night Is Young
TTITLE4=Money Hungry
TTITLE5=All Hell's Broke Loose
TTITLE6=Run For The Border
TTITLE7=She Don't Wanna See Me
TTITLE8=Blind Faith
TTITLE9=Rolling Thunder
TTITLE10=Have A Drink On Me
EXTD=YEAR: 1995
EXTT0=
EXTT1=
EXTT2=
EXTT3=
EXTT4=
EXTT5=
EXTT6=
EXTT7=
EXTT8=
EXTT9=
EXTT10=
PLAYORDER=
